<?xml version="1.0" encoding="iso-8859-1"?>
<svg version="1.1" id="Layer_1" xmlns="http://www.w3.org/2000/svg" xmlns:xlink="http://www.w3.org/1999/xlink" x="0px" y="0px"
	 viewBox="0 0 512 512" style="enable-background:new 0 0 512 512;" xml:space="preserve">
<g>
	<g>
		<path d="M256,0C114.62,0,0,114.62,0,256s114.62,256,256,256s256-114.62,256-256S397.38,0,256,0z M256,486.4
			C128.956,486.4,25.6,383.044,25.6,256S128.956,25.6,256,25.6S486.4,128.956,486.4,256S383.044,486.4,256,486.4z"/>
	</g>
</g>
<g>
	<g>
		<path d="M256,51.2c-35.345,0-64,28.655-64,64s28.655,64,64,64c35.345,0,64-28.655,64-64S291.345,51.2,256,51.2z M256,153.6
			c-21.171,0-38.4-17.229-38.4-38.4s17.229-38.4,38.4-38.4c21.171,0,38.4,17.229,38.4,38.4S277.171,153.6,256,153.6z"/>
	</g>
</g>
<g>
	<g>
		<path d="M281.6,204.8h-51.2c-14.14,0-25.6,11.46-25.6,25.6v204.8c0,14.14,11.46,25.6,25.6,25.6h51.2c14.14,0,25.6-11.46,25.6-25.6
			V230.4C307.2,216.26,295.74,204.8,281.6,204.8z M281.6,435.2h-51.2V230.4h51.2V435.2z"/>
	</g>
</g>
<g>
</g>
<g>
</g>
<g>
</g>
<g>
</g>
<g>
</g>
<g>
</g>
<g>
</g>
<g>
</g>
<g>
</g>
<g>
</g>
<g>
</g>
<g>
</g>
<g>
</g>
<g>
</g>
<g>
</g>
</svg>
