<svg viewBox="0 0 1356 614" fill="none" xmlns="http://www.w3.org/2000/svg" xmlns:xlink="http://www.w3.org/1999/xlink">
  <path d="M296 417.5L252.5 461 209 417.5l43.5-43.5 43.5 43.5z" fill="#fff"/>
  <path d="M289.636 417.5L252.5 454.636 215.364 417.5l37.136-37.136 37.136 37.136z" stroke="#33BEDC" stroke-opacity=".7" stroke-width="9"/>
  <path d="M160.05 524.5l-22.55 22.55-22.55-22.55 22.55-22.55 22.55 22.55z" fill="#fff" stroke="url(#paint0_linear)" stroke-width="7"/>
  <path d="M1356 178.5l-27.5 27.5-27.5-27.5 27.5-27.5 27.5 27.5z" fill="#fff"/>
  <path d="M1351.05 178.5l-22.55 22.55-22.55-22.55 22.55-22.55 22.55 22.55z" stroke="#33BEDC" stroke-opacity=".7" stroke-width="7"/>
  <path d="M1038 179.5l63.5-63.5 63.5 63.5-63.5 63.5-63.5-63.5z" fill="#fff"/>
  <path d="M1045.78 179.5l55.72-55.722 55.72 55.722-55.72 55.722-55.72-55.722z" stroke="#33BEDC" stroke-opacity=".7" stroke-width="11"/>
  <path d="M1207 69.5l36.5-36.5 36.5 36.5-36.5 36.5-36.5-36.5z" fill="#57F4D4" fill-opacity=".4"/>
  <path d="M1184 296l36-36 36 36-36 36-36-36z" fill="#6FF8D1"/>
  <path d="M1319.64 457.5l-37.14 37.136-37.14-37.136 37.14-37.136 37.14 37.136z" fill="#fff" stroke="url(#paint1_linear)" stroke-width="9"/>
  <path d="M7.778 179.5L63.5 123.778l55.722 55.722L63.5 235.222 7.778 179.5z" fill="#fff" stroke="url(#paint2_linear)" stroke-width="11"/>
  <path d="M88 453.5L51.5 490 15 453.5 51.5 417 88 453.5z" fill="#33BEDC" fill-opacity=".1"/>
  <path d="M216 96l20-20 20 20-20 20-20-20z" fill="#33BEDC"/>
  <path d="M88 341l20-20 20 20-20 20-20-20z" fill="#B0F1E5"/>
  <path d="M1144 522l20-20 20 20-20 20-20-20z" fill="#82EAF9"/>
  <path d="M165 269l36-36 36 36-36 36-36-36z" fill="#33BEDC" fill-opacity=".4"/>
  <path d="M100 24.5L124.5 0 149 24.5 124.5 49 100 24.5z" fill="#82EAF9"/>
  <path d="M1126 413.5l-36.5 36.5-36.5-36.5 36.5-36.5 36.5 36.5z" fill="#47BDFF" fill-opacity=".7"/>
  <g filter="url(#filter0_ii)">
    <path fill-rule="evenodd" clip-rule="evenodd" d="M308.152 67h738.628c12.55 0 22.73 10.175 22.73 22.727v493.798c0 12.552-10.18 22.727-22.73 22.727H308.152c-12.552 0-22.727-10.175-22.727-22.727V89.727C285.425 77.175 295.6 67 308.152 67z" fill="#0F0F0F"/>
  </g>
  <g filter="url(#filter1_ii)">
    <path d="M308.152 69.066h738.628c11.41 0 20.66 9.25 20.66 20.661v493.798c0 11.411-9.25 20.661-20.66 20.661H308.152c-11.411 0-20.661-9.25-20.661-20.661V89.727c0-11.41 9.25-20.66 20.661-20.66z" fill="#000"/>
    <path d="M308.152 69.066h738.628c11.41 0 20.66 9.25 20.66 20.661v493.798c0 11.411-9.25 20.661-20.66 20.661H308.152c-11.411 0-20.661-9.25-20.661-20.661V89.727c0-11.41 9.25-20.66 20.661-20.66z" fill="url(#paint3_linear)"/>
  </g>
  <g filter="url(#filter2_i)">
    <path d="M198.132 590.24h959.708c2.28 0 4.13 1.85 4.13 4.132v11.364H194v-11.364a4.132 4.132 0 014.132-4.132z" fill="#0B0B0B"/>
    <path d="M198.132 590.24h959.708c2.28 0 4.13 1.85 4.13 4.132v11.364H194v-11.364a4.132 4.132 0 014.132-4.132z" fill="url(#paint4_linear)"/>
  </g>
  <g filter="url(#filter3_ii)" fill-rule="evenodd" clip-rule="evenodd">
    <path d="M194 605.736h967.97l-4.1 2.187a51.654 51.654 0 01-24.31 6.077H222.409a51.651 51.651 0 01-24.307-6.077L194 605.736z" fill="#000"/>
    <path d="M194 605.736h967.97l-4.1 2.187a51.654 51.654 0 01-24.31 6.077H222.409a51.651 51.651 0 01-24.307-6.077L194 605.736z" fill="url(#paint5_linear)"/>
  </g>
  <g filter="url(#filter4_i)">
    <path fill-rule="evenodd" clip-rule="evenodd" d="M608.77 590.24h138.945v.516c0 5.706-4.625 10.331-10.331 10.331H619.1c-5.705 0-10.33-4.625-10.33-10.331v-.516z" fill="#141414"/>
  </g>
  <path fill-rule="evenodd" clip-rule="evenodd" d="M305.569 99.541h743.801v464.873H305.569V99.541z" fill="url(#pattern0)"/>
  <path fill-rule="evenodd" clip-rule="evenodd" d="M305.569 99.541h743.801v464.873H305.569V99.541z" fill="#353535"/>
  <g opacity=".2">
    <path d="M601 332.399L637.399 296l36.398 36.399-36.398 36.398L601 332.399zM680.906 332.399L717.305 296l36.398 36.399-36.398 36.398-36.399-36.398z" fill="#fff"/>
    <path d="M643.806 332.399l33.546-33.546 33.545 33.546-33.545 33.545-33.546-33.545z" fill="#353535" stroke="#fff" stroke-width="4.035"/>
  </g>
  <defs>
    <linearGradient id="paint0_linear" x1="164.534" y1="554.693" x2="108.472" y2="492.749" gradientUnits="userSpaceOnUse">
      <stop stop-color="#47BDFF"/>
      <stop offset="0" stop-color="#6FFAF2"/>
      <stop offset=".365" stop-color="#62E3FF"/>
      <stop offset=".646" stop-color="#62E3FF"/>
      <stop offset="1" stop-color="#4FFFB5"/>
    </linearGradient>
    <linearGradient id="paint1_linear" x1="1325.26" y1="505.261" x2="1236.58" y2="407.275" gradientUnits="userSpaceOnUse">
      <stop stop-color="#47BDFF"/>
      <stop offset="0" stop-color="#6FFAF2"/>
      <stop offset=".365" stop-color="#62E3FF"/>
      <stop offset=".646" stop-color="#62E3FF"/>
      <stop offset="1" stop-color="#4FFFB5"/>
    </linearGradient>
    <linearGradient id="paint2_linear" x1="1.076" y1="109.781" x2="130.528" y2="252.816" gradientUnits="userSpaceOnUse">
      <stop stop-color="#47BDFF"/>
      <stop offset="0" stop-color="#6FFAF2"/>
      <stop offset=".365" stop-color="#62E3FF"/>
      <stop offset=".646" stop-color="#62E3FF"/>
      <stop offset="1" stop-color="#4FFFB5"/>
    </linearGradient>
    <linearGradient id="paint3_linear" x1="-102.486" y1="336.626" x2="396.781" y2="1064.32" gradientUnits="userSpaceOnUse">
      <stop stop-color="#fff" stop-opacity=".048"/>
      <stop offset="1" stop-opacity=".01"/>
    </linearGradient>
    <linearGradient id="paint4_linear" x1="-289.984" y1="597.988" x2="-289.488" y2="628.971" gradientUnits="userSpaceOnUse">
      <stop stop-color="#fff" stop-opacity=".02"/>
      <stop offset="1" stop-opacity=".01"/>
    </linearGradient>
    <linearGradient id="paint5_linear" x1="-289.984" y1="609.868" x2="-289.843" y2="626.395" gradientUnits="userSpaceOnUse">
      <stop stop-color="#fff" stop-opacity=".048"/>
      <stop offset="1" stop-opacity=".01"/>
    </linearGradient>
    <filter id="filter0_ii" x="285.425" y="67" width="784.085" height="539.769" filterUnits="userSpaceOnUse" color-interpolation-filters="sRGB">
      <feFlood flood-opacity="0" result="BackgroundImageFix"/>
      <feBlend in="SourceGraphic" in2="BackgroundImageFix" result="shape"/>
      <feColorMatrix in="SourceAlpha" values="0 0 0 0 0 0 0 0 0 0 0 0 0 0 0 0 0 0 127 0" result="hardAlpha"/>
      <feOffset dy=".517"/>
      <feGaussianBlur stdDeviation="2.583"/>
      <feComposite in2="hardAlpha" operator="arithmetic" k2="-1" k3="1"/>
      <feColorMatrix values="0 0 0 0 0 0 0 0 0 0 0 0 0 0 0 0 0 0 0.5 0"/>
      <feBlend in2="shape" result="effect1_innerShadow"/>
      <feColorMatrix in="SourceAlpha" values="0 0 0 0 0 0 0 0 0 0 0 0 0 0 0 0 0 0 127 0" result="hardAlpha"/>
      <feOffset dy=".517"/>
      <feGaussianBlur stdDeviation=".775"/>
      <feComposite in2="hardAlpha" operator="arithmetic" k2="-1" k3="1"/>
      <feColorMatrix values="0 0 0 0 1 0 0 0 0 1 0 0 0 0 1 0 0 0 0.1 0"/>
      <feBlend in2="effect1_innerShadow" result="effect2_innerShadow"/>
    </filter>
    <filter id="filter1_ii" x="287.491" y="69.066" width="779.953" height="535.636" filterUnits="userSpaceOnUse" color-interpolation-filters="sRGB">
      <feFlood flood-opacity="0" result="BackgroundImageFix"/>
      <feBlend in="SourceGraphic" in2="BackgroundImageFix" result="shape"/>
      <feColorMatrix in="SourceAlpha" values="0 0 0 0 0 0 0 0 0 0 0 0 0 0 0 0 0 0 127 0" result="hardAlpha"/>
      <feOffset dy=".517"/>
      <feGaussianBlur stdDeviation="10.331"/>
      <feComposite in2="hardAlpha" operator="arithmetic" k2="-1" k3="1"/>
      <feColorMatrix values="0 0 0 0 1 0 0 0 0 1 0 0 0 0 1 0 0 0 0.0654721 0"/>
      <feBlend in2="shape" result="effect1_innerShadow"/>
      <feColorMatrix in="SourceAlpha" values="0 0 0 0 0 0 0 0 0 0 0 0 0 0 0 0 0 0 127 0" result="hardAlpha"/>
      <feOffset dy=".517"/>
      <feGaussianBlur stdDeviation=".775"/>
      <feComposite in2="hardAlpha" operator="arithmetic" k2="-1" k3="1"/>
      <feColorMatrix values="0 0 0 0 1 0 0 0 0 1 0 0 0 0 1 0 0 0 0.05 0"/>
      <feBlend in2="effect1_innerShadow" result="effect2_innerShadow"/>
    </filter>
    <filter id="filter2_i" x="194" y="590.24" width="967.968" height="16.012" filterUnits="userSpaceOnUse" color-interpolation-filters="sRGB">
      <feFlood flood-opacity="0" result="BackgroundImageFix"/>
      <feBlend in="SourceGraphic" in2="BackgroundImageFix" result="shape"/>
      <feColorMatrix in="SourceAlpha" values="0 0 0 0 0 0 0 0 0 0 0 0 0 0 0 0 0 0 127 0" result="hardAlpha"/>
      <feOffset dy=".517"/>
      <feGaussianBlur stdDeviation=".775"/>
      <feComposite in2="hardAlpha" operator="arithmetic" k2="-1" k3="1"/>
      <feColorMatrix values="0 0 0 0 1 0 0 0 0 1 0 0 0 0 1 0 0 0 0.05 0"/>
      <feBlend in2="shape" result="effect1_innerShadow"/>
    </filter>
    <filter id="filter3_ii" x="194" y="605.736" width="967.968" height="8.781" filterUnits="userSpaceOnUse" color-interpolation-filters="sRGB">
      <feFlood flood-opacity="0" result="BackgroundImageFix"/>
      <feBlend in="SourceGraphic" in2="BackgroundImageFix" result="shape"/>
      <feColorMatrix in="SourceAlpha" values="0 0 0 0 0 0 0 0 0 0 0 0 0 0 0 0 0 0 127 0" result="hardAlpha"/>
      <feOffset dy=".517"/>
      <feGaussianBlur stdDeviation="10.331"/>
      <feComposite in2="hardAlpha" operator="arithmetic" k2="-1" k3="1"/>
      <feColorMatrix values="0 0 0 0 1 0 0 0 0 1 0 0 0 0 1 0 0 0 0.03 0"/>
      <feBlend in2="shape" result="effect1_innerShadow"/>
      <feColorMatrix in="SourceAlpha" values="0 0 0 0 0 0 0 0 0 0 0 0 0 0 0 0 0 0 127 0" result="hardAlpha"/>
      <feOffset dy=".517"/>
      <feGaussianBlur stdDeviation=".775"/>
      <feComposite in2="hardAlpha" operator="arithmetic" k2="-1" k3="1"/>
      <feColorMatrix values="0 0 0 0 1 0 0 0 0 1 0 0 0 0 1 0 0 0 0.05 0"/>
      <feBlend in2="effect1_innerShadow" result="effect2_innerShadow"/>
    </filter>
    <filter id="filter4_i" x="608.77" y="590.24" width="138.945" height="11.364" filterUnits="userSpaceOnUse" color-interpolation-filters="sRGB">
      <feFlood flood-opacity="0" result="BackgroundImageFix"/>
      <feBlend in="SourceGraphic" in2="BackgroundImageFix" result="shape"/>
      <feColorMatrix in="SourceAlpha" values="0 0 0 0 0 0 0 0 0 0 0 0 0 0 0 0 0 0 127 0" result="hardAlpha"/>
      <feOffset dy=".517"/>
      <feGaussianBlur stdDeviation="2.583"/>
      <feComposite in2="hardAlpha" operator="arithmetic" k2="-1" k3="1"/>
      <feColorMatrix values="0 0 0 0 0 0 0 0 0 0 0 0 0 0 0 0 0 0 0.3 0"/>
      <feBlend in2="shape" result="effect1_innerShadow"/>
    </filter>
    <pattern id="pattern0" patternContentUnits="objectBoundingBox" width="1" height="1">
      <use xlink:href="#image0" transform="scale(.00035 .00056)"/>
    </pattern>
  </defs>
</svg>