<svg width="1326" height="574" viewBox="0 0 1326 574" fill="none" xmlns="http://www.w3.org/2000/svg" xmlns:xlink="http://www.w3.org/1999/xlink">
<path d="M296 377.5L252.5 421L209 377.5L252.5 334L296 377.5Z" fill="white"/>
<path d="M289.636 377.5L252.5 414.636L215.364 377.5L252.5 340.364L289.636 377.5Z" stroke="#0065FF" stroke-opacity="0.7" stroke-width="9"/>
<path d="M165 484.5L137.5 512L110 484.5L137.5 457L165 484.5Z" fill="white"/>
<path d="M160.05 484.5L137.5 507.05L114.95 484.5L137.5 461.95L160.05 484.5Z" stroke="#0065FF" stroke-opacity="0.7" stroke-width="7"/>
<path d="M1038 139.5L1101.5 76L1165 139.5L1101.5 203L1038 139.5Z" fill="white"/>
<path d="M1045.78 139.5L1101.5 83.7782L1157.22 139.5L1101.5 195.222L1045.78 139.5Z" stroke="#0065FF" stroke-opacity="0.7" stroke-width="11"/>
<path d="M1221 39.5L1257.5 3L1294 39.5L1257.5 76L1221 39.5Z" fill="#0065FF" fill-opacity="0.1"/>
<path d="M1203 265L1239 229L1275 265L1239 301L1203 265Z" fill="#0065FF" fill-opacity="0.4"/>
<path d="M1326 417.5L1282.5 461L1239 417.5L1282.5 374L1326 417.5Z" fill="white"/>
<path d="M1319.64 417.5L1282.5 454.636L1245.36 417.5L1282.5 380.364L1319.64 417.5Z" stroke="#0065FF" stroke-opacity="0.7" stroke-width="9"/>
<path d="M0 139.5L63.5 76L127 139.5L63.5 203L0 139.5Z" fill="white"/>
<path d="M7.77817 139.5L63.5 83.7782L119.222 139.5L63.5 195.222L7.77817 139.5Z" stroke="#0065FF" stroke-opacity="0.7" stroke-width="11"/>
<path d="M88 413.5L51.5 450L15 413.5L51.5 377L88 413.5Z" fill="#0065FF" fill-opacity="0.1"/>
<path d="M216 56L236 36L256 56L236 76L216 56Z" fill="#D4E0F1"/>
<path d="M96 317L116 297L136 317L116 337L96 317Z" fill="#D4E0F1"/>
<path d="M165 229L201 193L237 229L201 265L165 229Z" fill="#0065FF" fill-opacity="0.4"/>
<path d="M116 24.5L140.5 0L165 24.5L140.5 49L116 24.5Z" fill="#0065FF" fill-opacity="0.4"/>
<path d="M1126 373.5L1089.5 410L1053 373.5L1089.5 337L1126 373.5Z" fill="#D2DFF3"/>
<g filter="url(#filter0_ii)">
<path fill-rule="evenodd" clip-rule="evenodd" d="M308.152 27H1046.78C1059.33 27 1069.51 37.1753 1069.51 49.7271V543.525C1069.51 556.077 1059.33 566.252 1046.78 566.252H308.152C295.6 566.252 285.425 556.077 285.425 543.525V49.7271C285.425 37.1753 295.6 27 308.152 27Z" fill="#0F0F0F"/>
</g>
<g filter="url(#filter1_ii)">
<path d="M308.152 29.0661H1046.78C1058.19 29.0661 1067.44 38.3163 1067.44 49.7271V543.525C1067.44 554.936 1058.19 564.186 1046.78 564.186H308.152C296.741 564.186 287.491 554.936 287.491 543.525V49.7271C287.491 38.3163 296.741 29.0661 308.152 29.0661Z" fill="black"/>
<path d="M308.152 29.0661H1046.78C1058.19 29.0661 1067.44 38.3163 1067.44 49.7271V543.525C1067.44 554.936 1058.19 564.186 1046.78 564.186H308.152C296.741 564.186 287.491 554.936 287.491 543.525V49.7271C287.491 38.3163 296.741 29.0661 308.152 29.0661Z" fill="url(#paint0_linear)"/>
</g>
<g filter="url(#filter2_i)">
<path d="M198.132 550.24H1157.84C1160.12 550.24 1161.97 552.09 1161.97 554.372V565.736H194V554.372C194 552.09 195.85 550.24 198.132 550.24Z" fill="#0B0B0B"/>
<path d="M198.132 550.24H1157.84C1160.12 550.24 1161.97 552.09 1161.97 554.372V565.736H194V554.372C194 552.09 195.85 550.24 198.132 550.24Z" fill="url(#paint1_linear)"/>
</g>
<g filter="url(#filter3_ii)">
<path fill-rule="evenodd" clip-rule="evenodd" d="M194 565.736H1161.97L1157.87 567.923C1150.39 571.913 1142.04 574 1133.56 574H222.409C213.931 574 205.583 571.913 198.102 567.923L194 565.736Z" fill="black"/>
<path fill-rule="evenodd" clip-rule="evenodd" d="M194 565.736H1161.97L1157.87 567.923C1150.39 571.913 1142.04 574 1133.56 574H222.409C213.931 574 205.583 571.913 198.102 567.923L194 565.736Z" fill="url(#paint2_linear)"/>
</g>
<g filter="url(#filter4_i)">
<path fill-rule="evenodd" clip-rule="evenodd" d="M608.77 550.24H747.715V550.756C747.715 556.462 743.09 561.087 737.384 561.087H619.1C613.395 561.087 608.77 556.462 608.77 550.756V550.24Z" fill="#141414"/>
</g>
<path fill-rule="evenodd" clip-rule="evenodd" d="M305.569 59.5411H1049.37V524.414H305.569V59.5411Z" fill="url(#pattern0)"/>
<path fill-rule="evenodd" clip-rule="evenodd" d="M305.569 59.5411H1049.37V524.414H305.569V59.5411Z" fill="#353535"/>
<g opacity="0.2">
<path d="M601 292.399L637.399 256L673.797 292.399L637.399 328.797L601 292.399Z" fill="white"/>
<path d="M680.906 292.399L717.305 256L753.704 292.399L717.305 328.797L680.906 292.399Z" fill="white"/>
<path d="M643.806 292.399L677.352 258.853L710.897 292.399L677.352 325.944L643.806 292.399Z" fill="#353535" stroke="white" stroke-width="4.03509"/>
</g>
<defs>
<filter id="filter0_ii" x="285.425" y="27" width="784.085" height="539.769" filterUnits="userSpaceOnUse" color-interpolation-filters="sRGB">
<feFlood flood-opacity="0" result="BackgroundImageFix"/>
<feBlend mode="normal" in="SourceGraphic" in2="BackgroundImageFix" result="shape"/>
<feColorMatrix in="SourceAlpha" type="matrix" values="0 0 0 0 0 0 0 0 0 0 0 0 0 0 0 0 0 0 127 0" result="hardAlpha"/>
<feOffset dy="0.516525"/>
<feGaussianBlur stdDeviation="2.58263"/>
<feComposite in2="hardAlpha" operator="arithmetic" k2="-1" k3="1"/>
<feColorMatrix type="matrix" values="0 0 0 0 0 0 0 0 0 0 0 0 0 0 0 0 0 0 0.5 0"/>
<feBlend mode="normal" in2="shape" result="effect1_innerShadow"/>
<feColorMatrix in="SourceAlpha" type="matrix" values="0 0 0 0 0 0 0 0 0 0 0 0 0 0 0 0 0 0 127 0" result="hardAlpha"/>
<feOffset dy="0.516525"/>
<feGaussianBlur stdDeviation="0.774788"/>
<feComposite in2="hardAlpha" operator="arithmetic" k2="-1" k3="1"/>
<feColorMatrix type="matrix" values="0 0 0 0 1 0 0 0 0 1 0 0 0 0 1 0 0 0 0.1 0"/>
<feBlend mode="normal" in2="effect1_innerShadow" result="effect2_innerShadow"/>
</filter>
<filter id="filter1_ii" x="287.491" y="29.0661" width="779.953" height="535.636" filterUnits="userSpaceOnUse" color-interpolation-filters="sRGB">
<feFlood flood-opacity="0" result="BackgroundImageFix"/>
<feBlend mode="normal" in="SourceGraphic" in2="BackgroundImageFix" result="shape"/>
<feColorMatrix in="SourceAlpha" type="matrix" values="0 0 0 0 0 0 0 0 0 0 0 0 0 0 0 0 0 0 127 0" result="hardAlpha"/>
<feOffset dy="0.516525"/>
<feGaussianBlur stdDeviation="10.3305"/>
<feComposite in2="hardAlpha" operator="arithmetic" k2="-1" k3="1"/>
<feColorMatrix type="matrix" values="0 0 0 0 1 0 0 0 0 1 0 0 0 0 1 0 0 0 0.0654721 0"/>
<feBlend mode="normal" in2="shape" result="effect1_innerShadow"/>
<feColorMatrix in="SourceAlpha" type="matrix" values="0 0 0 0 0 0 0 0 0 0 0 0 0 0 0 0 0 0 127 0" result="hardAlpha"/>
<feOffset dy="0.516525"/>
<feGaussianBlur stdDeviation="0.774788"/>
<feComposite in2="hardAlpha" operator="arithmetic" k2="-1" k3="1"/>
<feColorMatrix type="matrix" values="0 0 0 0 1 0 0 0 0 1 0 0 0 0 1 0 0 0 0.05 0"/>
<feBlend mode="normal" in2="effect1_innerShadow" result="effect2_innerShadow"/>
</filter>
<filter id="filter2_i" x="194" y="550.24" width="967.968" height="16.0123" filterUnits="userSpaceOnUse" color-interpolation-filters="sRGB">
<feFlood flood-opacity="0" result="BackgroundImageFix"/>
<feBlend mode="normal" in="SourceGraphic" in2="BackgroundImageFix" result="shape"/>
<feColorMatrix in="SourceAlpha" type="matrix" values="0 0 0 0 0 0 0 0 0 0 0 0 0 0 0 0 0 0 127 0" result="hardAlpha"/>
<feOffset dy="0.516525"/>
<feGaussianBlur stdDeviation="0.774788"/>
<feComposite in2="hardAlpha" operator="arithmetic" k2="-1" k3="1"/>
<feColorMatrix type="matrix" values="0 0 0 0 1 0 0 0 0 1 0 0 0 0 1 0 0 0 0.05 0"/>
<feBlend mode="normal" in2="shape" result="effect1_innerShadow"/>
</filter>
<filter id="filter3_ii" x="194" y="565.736" width="967.968" height="8.78093" filterUnits="userSpaceOnUse" color-interpolation-filters="sRGB">
<feFlood flood-opacity="0" result="BackgroundImageFix"/>
<feBlend mode="normal" in="SourceGraphic" in2="BackgroundImageFix" result="shape"/>
<feColorMatrix in="SourceAlpha" type="matrix" values="0 0 0 0 0 0 0 0 0 0 0 0 0 0 0 0 0 0 127 0" result="hardAlpha"/>
<feOffset dy="0.516525"/>
<feGaussianBlur stdDeviation="10.3305"/>
<feComposite in2="hardAlpha" operator="arithmetic" k2="-1" k3="1"/>
<feColorMatrix type="matrix" values="0 0 0 0 1 0 0 0 0 1 0 0 0 0 1 0 0 0 0.03 0"/>
<feBlend mode="normal" in2="shape" result="effect1_innerShadow"/>
<feColorMatrix in="SourceAlpha" type="matrix" values="0 0 0 0 0 0 0 0 0 0 0 0 0 0 0 0 0 0 127 0" result="hardAlpha"/>
<feOffset dy="0.516525"/>
<feGaussianBlur stdDeviation="0.774788"/>
<feComposite in2="hardAlpha" operator="arithmetic" k2="-1" k3="1"/>
<feColorMatrix type="matrix" values="0 0 0 0 1 0 0 0 0 1 0 0 0 0 1 0 0 0 0.05 0"/>
<feBlend mode="normal" in2="effect1_innerShadow" result="effect2_innerShadow"/>
</filter>
<filter id="filter4_i" x="608.77" y="550.24" width="138.945" height="11.3636" filterUnits="userSpaceOnUse" color-interpolation-filters="sRGB">
<feFlood flood-opacity="0" result="BackgroundImageFix"/>
<feBlend mode="normal" in="SourceGraphic" in2="BackgroundImageFix" result="shape"/>
<feColorMatrix in="SourceAlpha" type="matrix" values="0 0 0 0 0 0 0 0 0 0 0 0 0 0 0 0 0 0 127 0" result="hardAlpha"/>
<feOffset dy="0.516525"/>
<feGaussianBlur stdDeviation="2.58263"/>
<feComposite in2="hardAlpha" operator="arithmetic" k2="-1" k3="1"/>
<feColorMatrix type="matrix" values="0 0 0 0 0 0 0 0 0 0 0 0 0 0 0 0 0 0 0.3 0"/>
<feBlend mode="normal" in2="shape" result="effect1_innerShadow"/>
</filter>
<pattern id="pattern0" patternContentUnits="objectBoundingBox" width="1" height="1">
<use xlink:href="#image0" transform="scale(0.000347222 0.000555556)"/>
</pattern>
<linearGradient id="paint0_linear" x1="-102.485" y1="296.626" x2="396.782" y2="1024.32" gradientUnits="userSpaceOnUse">
<stop stop-color="white" stop-opacity="0.0483186"/>
<stop offset="1" stop-opacity="0.01"/>
</linearGradient>
<linearGradient id="paint1_linear" x1="-289.984" y1="557.988" x2="-289.488" y2="588.971" gradientUnits="userSpaceOnUse">
<stop stop-color="white" stop-opacity="0.02"/>
<stop offset="1" stop-opacity="0.01"/>
</linearGradient>
<linearGradient id="paint2_linear" x1="-289.984" y1="569.868" x2="-289.843" y2="586.395" gradientUnits="userSpaceOnUse">
<stop stop-color="white" stop-opacity="0.0483186"/>
<stop offset="1" stop-opacity="0.01"/>
</linearGradient>
</defs>
</svg>
