<svg width="93" height="65" viewBox="0 0 93 65" fill="none" xmlns="http://www.w3.org/2000/svg">
<path d="M1.60309 21.3986L23.0017 0L44.4003 21.3986L23.0017 42.7972L1.60309 21.3986Z" fill="black"/>
<path d="M48.5798 21.3986L69.9784 0L91.3771 21.3986L69.9784 42.7972L48.5798 21.3986Z" fill="black"/>
<path d="M27.9447 21.3986L46.49 2.85324L65.0354 21.3986L46.49 39.944L27.9447 21.3986Z" fill="white" stroke="black" stroke-width="4.03509"/>
<path d="M1.77098 52.718V64.4557H0V52.718H1.77098Z" fill="black"/>
<path d="M7.57797 64.4557V52.718H9.34895V62.9312H14.6676V64.4557H7.57797Z" fill="black"/>
<path d="M19.9158 64.4557V52.718H27.2748V54.2425H21.6868V57.8189H26.8908V59.3377H21.6868V62.9312H27.3436V64.4557H19.9158Z" fill="black"/>
<path d="M36.6682 64.4557H32.8683V52.718H36.7886C37.9425 52.718 38.9302 52.953 39.7517 53.4229C40.577 53.8891 41.2093 54.5596 41.6487 55.4346C42.0919 56.3058 42.3136 57.3508 42.3136 58.5697C42.3136 59.7923 42.0919 60.8431 41.6487 61.7219C41.2055 62.6007 40.5617 63.277 39.7173 63.7508C38.8767 64.2208 37.8603 64.4557 36.6682 64.4557ZM34.6393 62.9083H36.5708C37.9081 62.9083 38.9091 62.5338 39.574 61.7849C40.2388 61.0322 40.5712 59.9605 40.5712 58.5697C40.5712 57.1865 40.2426 56.1243 39.5854 55.383C38.9321 54.638 37.9635 54.2654 36.6797 54.2654H34.6393V62.9083Z" fill="black"/>
<path d="M49.5147 52.718V64.4557H47.7437V52.718H49.5147Z" fill="black"/>
<path d="M54.7428 54.2425V52.718H63.827V54.2425H60.1646V64.4557H58.3994V54.2425H54.7428Z" fill="black"/>
<path d="M78.7697 58.5869C78.7697 59.8363 78.5404 60.9119 78.0819 61.8136C77.6234 62.7153 76.9949 63.4088 76.1963 63.8941C75.4016 64.3755 74.4979 64.6162 73.4854 64.6162C72.4691 64.6162 71.5616 64.3755 70.763 63.8941C69.9683 63.4088 69.3417 62.7153 68.8831 61.8136C68.4246 60.9119 68.1954 59.8363 68.1954 58.5869C68.1954 57.3336 68.4246 56.258 68.8831 55.3601C69.3417 54.4584 69.9683 53.7668 70.763 53.2854C71.5616 52.8001 72.4691 52.5575 73.4854 52.5575C74.4979 52.5575 75.4016 52.8001 76.1963 53.2854C76.9949 53.7668 77.6234 54.4584 78.0819 55.3601C78.5404 56.258 78.7697 57.3336 78.7697 58.5869ZM77.0159 58.5869C77.0159 57.6316 76.8612 56.8273 76.5517 56.174C76.246 55.5168 75.8257 55.0201 75.2908 54.6838C74.7597 54.3438 74.1579 54.1737 73.4854 54.1737C72.8129 54.1737 72.2092 54.3438 71.6743 54.6838C71.1432 55.0201 70.7229 55.5168 70.4134 56.174C70.1077 56.8273 69.9549 57.6316 69.9549 58.5869C69.9549 59.5383 70.1077 60.3426 70.4134 60.9997C70.7229 61.6569 71.1432 62.1556 71.6743 62.4956C72.2092 62.8319 72.8129 63 73.4854 63C74.1579 63 74.7597 62.8319 75.2908 62.4956C75.8257 62.1556 76.246 61.6569 76.5517 60.9997C76.8612 60.3426 77.0159 59.5383 77.0159 58.5869Z" fill="black"/>
<path d="M84.2056 64.4557V52.718H88.3894C89.2988 52.718 90.0535 52.8746 90.6533 53.1879C91.2532 53.5013 91.7022 53.9349 92.0002 54.489C92.302 55.0392 92.453 55.6753 92.453 56.3975C92.453 57.1846 92.2734 57.8666 91.9142 58.4436C91.5589 59.0167 91.0201 59.437 90.298 59.7045L92.9 64.4557H90.8826L88.4983 60.014C88.4601 60.014 88.4219 60.014 88.3837 60.014H85.9766V64.4557H84.2056ZM85.9766 58.4894H88.2232C89.0868 58.4894 89.7096 58.306 90.0917 57.9392C90.4776 57.5724 90.6705 57.0585 90.6705 56.3975C90.6705 55.7327 90.4776 55.2073 90.0917 54.8214C89.7057 54.4316 89.0753 54.2368 88.2003 54.2368H85.9766V58.4894Z" fill="black"/>
</svg>
